<?xml version="1.0" standalone="no"?>
<!DOCTYPE svg PUBLIC "-//W3C//DTD SVG 20010904//EN"
 "http://www.w3.org/TR/2001/REC-SVG-20010904/DTD/svg10.dtd">
<svg version="1.0" xmlns="http://www.w3.org/2000/svg"
 width="360.000000pt" height="377.000000pt" viewBox="0 0 360.000000 377.000000"
 preserveAspectRatio="xMidYMid meet">

<g transform="translate(0.000000,377.000000) scale(0.100000,-0.100000)"
fill="#000000" stroke="none">
<path d="M1605 3739 c-601 -95 -739 -121 -761 -143 -6 -6 -28 -54 -48 -106
l-36 -96 -117 -23 c-234 -45 -208 -33 -249 -114 -19 -40 -39 -75 -42 -79 -4
-4 -68 -20 -142 -37 -74 -17 -149 -35 -167 -41 l-31 -11 -7 -117 c-10 -149 0
-469 20 -637 44 -375 122 -667 249 -930 197 -409 601 -839 1094 -1166 161
-107 379 -219 427 -219 64 0 248 92 445 223 385 257 732 597 962 942 193 290
319 681 373 1155 19 167 29 544 18 665 l-8 90 -90 22 c-49 12 -126 30 -169 40
l-79 18 -39 77 c-43 87 -16 74 -250 119 l-117 23 -37 96 c-20 52 -42 100 -48
106 -27 27 -224 62 -946 168 -14 2 -106 -9 -205 -25z m489 -290 c319 -49 507
-86 522 -102 6 -7 25 -48 43 -93 l32 -81 67 -12 c37 -6 100 -19 140 -27 l73
-16 33 -67 34 -66 128 -28 c70 -16 135 -32 144 -37 44 -24 38 -443 -10 -771
-37 -249 -107 -489 -196 -676 -150 -314 -482 -677 -869 -950 -169 -119 -382
-233 -437 -233 -13 0 -67 21 -119 46 -420 204 -893 637 -1124 1028 -124 212
-216 499 -259 811 -40 287 -46 715 -11 741 8 6 74 24 146 40 l131 28 33 67
c38 75 29 70 217 105 l97 18 32 80 c18 45 36 86 41 92 4 6 54 21 111 33 152
32 635 109 691 110 27 0 166 -17 310 -40z"/>
<path d="M1620 3199 c-36 -4 -93 -13 -128 -20 l-63 -11 7 -834 c4 -459 4 -834
1 -834 -12 0 -57 164 -81 297 -57 316 -79 589 -80 991 l-1 313 -29 -5 c-44 -9
-208 -76 -240 -99 l-29 -20 6 -266 c6 -262 25 -516 52 -700 l13 -94 -31 -48
c-18 -27 -36 -47 -42 -46 -17 6 -72 184 -99 317 -40 196 -58 370 -59 567 -1
101 -6 183 -10 183 -5 0 -67 -39 -139 -86 l-131 -85 7 -122 c22 -391 124 -809
268 -1089 61 -120 103 -179 122 -172 7 3 51 57 97 120 46 63 86 114 89 114 3
0 19 -39 34 -87 75 -232 209 -528 308 -680 86 -132 213 -263 255 -263 12 0 13
197 11 1335 -3 1328 -3 1335 -23 1334 -11 -1 -49 -5 -85 -10z"/>
<path d="M1906 3196 c-21 -16 -29 -2656 -8 -2656 7 0 54 28 105 61 247 165
546 468 710 719 121 187 172 323 171 461 0 109 -29 174 -111 249 -30 28 -54
52 -52 53 127 84 230 190 277 285 32 65 36 84 36 146 0 89 -34 167 -105 238
-67 67 -242 179 -395 254 -211 103 -592 219 -628 190z m453 -407 c206 -88 308
-159 337 -234 16 -43 16 -45 -6 -89 -16 -35 -41 -60 -103 -105 -108 -77 -334
-229 -369 -247 l-28 -15 0 377 0 376 28 -7 c15 -3 78 -29 141 -56z m130 -927
c57 -28 76 -64 75 -135 -1 -35 -10 -88 -22 -121 -25 -69 -138 -253 -215 -348
-55 -69 -145 -168 -152 -168 -2 0 -2 60 -1 133 2 72 4 231 5 353 l1 220 48 24
c118 58 203 72 261 42z"/>
</g>
</svg>
